HIERARCHY
ROOT Hips
{
  OFFSET 0.000000 95.000000 0.000000
  CHANNELS 6 Xposition Yposition Zposition Zrotation Xrotation Yrotation
  JOINT Spine
  {
    OFFSET 0.000000 10.000000 0.000000
    CHANNELS 3 Zrotation Xrotation Yrotation
    JOINT Spine1
    {
      OFFSET 0.000000 12.000000 0.000000
      CHANNELS 3 Zrotation Xrotation Yrotation
      JOINT Spine2
      {
        OFFSET 0.000000 12.000000 0.000000
        CHANNELS 3 Zrotation Xrotation Yrotation
        JOINT Neck
        {
          OFFSET 0.000000 10.000000 0.000000
          CHANNELS 3 Zrotation Xrotation Yrotation
          JOINT Head
          {
            OFFSET 0.000000 8.000000 0.000000
            CHANNELS 3 Zrotation Xrotation Yrotation
            End Site
            {
              OFFSET 0.000000 10.000000 0.000000
            }
          }
        }
        JOINT LeftShoulder
        {
          OFFSET 6.000000 8.000000 0.000000
          CHANNELS 3 Zrotation Xrotation Yrotation
          JOINT LeftArm
          {
            OFFSET 12.000000 0.000000 0.000000
            CHANNELS 3 Zrotation Xrotation Yrotation
            JOINT LeftForeArm
            {
              OFFSET 24.000000 0.000000 0.000000
              CHANNELS 3 Zrotation Xrotation Yrotation
              JOINT LeftHand
              {
                OFFSET 22.000000 0.000000 0.000000
                CHANNELS 3 Zrotation Xrotation Yrotation
                JOINT LeftHandThumb1
                {
                  OFFSET 1.800000 -1.400000 0.500000
                  CHANNELS 3 Zrotation Xrotation Yrotation
                  JOINT LeftHandThumb2
                  {
                    OFFSET 2.400000 0.000000 0.000000
                    CHANNELS 3 Zrotation Xrotation Yrotation
                    JOINT LeftHandThumb3
                    {
                      OFFSET 1.900000 0.000000 0.000000
                      CHANNELS 3 Zrotation Xrotation Yrotation
                      End Site
                      {
                        OFFSET 1.600000 0.000000 0.000000
                      }
                    }
                  }
                }
                JOINT LeftHandIndex1
                {
                  OFFSET 6.600000 1.200000 0.300000
                  CHANNELS 3 Zrotation Xrotation Yrotation
                  JOINT LeftHandIndex2
                  {
                    OFFSET 2.000000 0.000000 0.000000
                    CHANNELS 3 Zrotation Xrotation Yrotation
                    JOINT LeftHandIndex3
                    {
                      OFFSET 1.200000 0.000000 0.000000
                      CHANNELS 3 Zrotation Xrotation Yrotation
                      End Site
                      {
                        OFFSET 1.000000 0.000000 0.000000
                      }
                    }
                  }
                }
                JOINT LeftHandMiddle1
                {
                  OFFSET 7.200000 0.000000 0.300000
                  CHANNELS 3 Zrotation Xrotation Yrotation
                  JOINT LeftHandMiddle2
                  {
                    OFFSET 3.000000 0.000000 0.000000
                    CHANNELS 3 Zrotation Xrotation Yrotation
                    JOINT LeftHandMiddle3
                    {
                      OFFSET 2.000000 0.000000 0.000000
                      CHANNELS 3 Zrotation Xrotation Yrotation
                      End Site
                      {
                        OFFSET 1.600000 0.000000 0.000000
                      }
                    }
                  }
                }
                JOINT LeftHandRing1
                {
                  OFFSET 7.100000 -1.000000 0.400000
                  CHANNELS 3 Zrotation Xrotation Yrotation
                  JOINT LeftHandRing2
                  {
                    OFFSET 2.600000 0.000000 0.000000
                    CHANNELS 3 Zrotation Xrotation Yrotation
                    JOINT LeftHandRing3
                    {
                      OFFSET 1.600000 0.000000 0.000000
                      CHANNELS 3 Zrotation Xrotation Yrotation
                      End Site
                      {
                        OFFSET 1.300000 0.000000 0.000000
                      }
                    }
                  }
                }
                JOINT LeftHandPinky1
                {
                  OFFSET 6.500000 -2.000000 0.500000
                  CHANNELS 3 Zrotation Xrotation Yrotation
                  JOINT LeftHandPinky2
                  {
                    OFFSET 1.900000 0.000000 0.000000
                    CHANNELS 3 Zrotation Xrotation Yrotation
                    JOINT LeftHandPinky3
                    {
                      OFFSET 1.400000 0.000000 0.000000
                      CHANNELS 3 Zrotation Xrotation Yrotation
                      End Site
                      {
                        OFFSET 1.300000 0.000000 0.000000
                      }
                    }
                  }
                }
              }
            }
          }
        }
        JOINT RightShoulder
        {
          OFFSET -6.000000 8.000000 0.000000
          CHANNELS 3 Zrotation Xrotation Yrotation
          JOINT RightArm
          {
            OFFSET -12.000000 0.000000 0.000000
            CHANNELS 3 Zrotation Xrotation Yrotation
            JOINT RightForeArm
            {
              OFFSET -24.000000 0.000000 0.000000
              CHANNELS 3 Zrotation Xrotation Yrotation
              JOINT RightHand
              {
                OFFSET -22.000000 0.000000 0.000000
                CHANNELS 3 Zrotation Xrotation Yrotation
                JOINT RightHandThumb1
                {
                  OFFSET -1.800000 -1.400000 0.500000
                  CHANNELS 3 Zrotation Xrotation Yrotation
                  JOINT RightHandThumb2
                  {
                    OFFSET -2.400000 0.000000 0.000000
                    CHANNELS 3 Zrotation Xrotation Yrotation
                    JOINT RightHandThumb3
                    {
                      OFFSET -1.900000 0.000000 0.000000
                      CHANNELS 3 Zrotation Xrotation Yrotation
                      End Site
                      {
                        OFFSET -1.600000 0.000000 0.000000
                      }
                    }
                  }
                }
                JOINT RightHandIndex1
                {
                  OFFSET -6.600000 1.200000 0.300000
                  CHANNELS 3 Zrotation Xrotation Yrotation
                  JOINT RightHandIndex2
                  {
                    OFFSET -2.000000 0.000000 0.000000
                    CHANNELS 3 Zrotation Xrotation Yrotation
                    JOINT RightHandIndex3
                    {
                      OFFSET -1.200000 0.000000 0.000000
                      CHANNELS 3 Zrotation Xrotation Yrotation
                      End Site
                      {
                        OFFSET -1.000000 0.000000 0.000000
                      }
                    }
                  }
                }
                JOINT RightHandMiddle1
                {
                  OFFSET -7.200000 0.000000 0.300000
                  CHANNELS 3 Zrotation Xrotation Yrotation
                  JOINT RightHandMiddle2
                  {
                    OFFSET -3.000000 0.000000 0.000000
                    CHANNELS 3 Zrotation Xrotation Yrotation
                    JOINT RightHandMiddle3
                    {
                      OFFSET -2.000000 0.000000 0.000000
                      CHANNELS 3 Zrotation Xrotation Yrotation
                      End Site
                      {
                        OFFSET -1.600000 0.000000 0.000000
                      }
                    }
                  }
                }
                JOINT RightHandRing1
                {
                  OFFSET -7.100000 -1.000000 0.400000
                  CHANNELS 3 Zrotation Xrotation Yrotation
                  JOINT RightHandRing2
                  {
                    OFFSET -2.600000 0.000000 0.000000
                    CHANNELS 3 Zrotation Xrotation Yrotation
                    JOINT RightHandRing3
                    {
                      OFFSET -1.600000 0.000000 0.000000
                      CHANNELS 3 Zrotation Xrotation Yrotation
                      End Site
                      {
                        OFFSET -1.300000 0.000000 0.000000
                      }
                    }
                  }
                }
                JOINT RightHandPinky1
                {
                  OFFSET -6.500000 -2.000000 0.500000
                  CHANNELS 3 Zrotation Xrotation Yrotation
                  JOINT RightHandPinky2
                  {
                    OFFSET -1.900000 0.000000 0.000000
                    CHANNELS 3 Zrotation Xrotation Yrotation
                    JOINT RightHandPinky3
                    {
                      OFFSET -1.400000 0.000000 0.000000
                      CHANNELS 3 Zrotation Xrotation Yrotation
                      End Site
                      {
                        OFFSET -1.300000 0.000000 0.000000
                      }
                    }
                  }
                }
              }
            }
          }
        }
      }
    }
  }
  JOINT LeftUpLeg
  {
    OFFSET 10.000000 -5.000000 0.000000
    CHANNELS 3 Zrotation Xrotation Yrotation
    JOINT LeftLeg
    {
      OFFSET 0.000000 -42.000000 0.000000
      CHANNELS 3 Zrotation Xrotation Yrotation
      JOINT LeftFoot
      {
        OFFSET 0.000000 -42.000000 4.000000
        CHANNELS 3 Zrotation Xrotation Yrotation
        End Site
        {
          OFFSET 0.000000 0.000000 12.000000
        }
      }
    }
  }
  JOINT RightUpLeg
  {
    OFFSET -10.000000 -5.000000 0.000000
    CHANNELS 3 Zrotation Xrotation Yrotation
    JOINT RightLeg
    {
      OFFSET 0.000000 -42.000000 0.000000
      CHANNELS 3 Zrotation Xrotation Yrotation
      JOINT RightFoot
      {
        OFFSET 0.000000 -42.000000 4.000000
        CHANNELS 3 Zrotation Xrotation Yrotation
        End Site
        {
          OFFSET 0.000000 0.000000 12.000000
        }
      }
    }
  }
}
MOTION
Frames: 4
Frame Time: 0.033333
0.0000 95.0000 0.0000 0.0000 0.0000 0.0000 0.0000 0.0000 0.0000 0.0000 0.0000 0.0000 0.0000 0.0000 0.0000 0.0000 0.0000 0.0000 0.0000 0.0000 0.0000 0.0000 0.0000 0.0000 -79.3233 1.8664 2.2510 -8.7961 -8.0287 11.6770 18.1606 -51.7350 158.9078 48.8655 -10.4412 0.9772 14.1779 0.0000 0.0000 9.7780 0.0000 0.0000 -23.1911 1.3645 14.4227 4.3043 0.0000 0.0000 2.3186 0.0000 0.0000 -12.3121 1.9705 13.3467 5.2866 0.0000 0.0000 6.1609 0.0000 0.0000 -2.7258 2.3631 13.2215 4.2059 0.0000 0.0000 4.2848 0.0000 0.0000 8.7971 1.7443 10.5919 5.4803 0.0000 0.0000 3.4086 0.0000 0.0000 0.0000 0.0000 0.0000 92.2396 -0.9014 0.8668 -5.4553 12.7535 11.0596 176.5675 48.4954 -112.2631 -41.1254 -19.6222 37.1543 35.1510 0.0000 0.0000 10.7890 0.0000 0.0000 11.8090 0.7846 3.3380 19.4065 0.0000 0.0000 37.9821 0.0000 0.0000 34.3811 -12.1217 42.6570 10.2805 0.0000 0.0000 6.3771 0.0000 0.0000 31.7138 -15.5730 38.8881 12.0782 0.0000 0.0000 1.8673 0.0000 0.0000 28.7051 -18.6016 34.4012 9.2635 0.0000 0.0000 7.2051 0.0000 0.0000 0.0000 0.0000 0.0000 0.0000 0.0000 0.0000 0.0000 0.0000 0.0000 0.0000 0.0000 0.0000 0.0000 0.0000 0.0000 0.0000 0.0000 0.0000
0.0000 95.0000 0.0000 0.0000 0.0000 0.0000 0.0000 0.0000 0.0000 0.0000 0.0000 0.0000 0.0000 0.0000 0.0000 0.0000 0.0000 0.0000 0.0000 0.0000 0.0000 0.0000 0.0000 0.0000 -79.1723 1.5168 1.8343 -8.9773 -7.7659 11.3219 17.6831 -51.1160 159.9842 48.8655 -10.4412 0.9772 14.1779 0.0000 0.0000 9.7780 0.0000 0.0000 -23.1911 1.3645 14.4227 4.3043 0.0000 0.0000 2.3186 0.0000 0.0000 -12.3121 1.9705 13.3467 5.2866 0.0000 0.0000 6.1609 0.0000 0.0000 -2.7258 2.3631 13.2215 4.2059 0.0000 0.0000 4.2848 0.0000 0.0000 8.7971 1.7443 10.5919 5.4803 0.0000 0.0000 3.4086 0.0000 0.0000 0.0000 0.0000 0.0000 91.9937 -0.8319 0.8035 -5.1250 12.8127 11.2362 176.6528 48.4565 -112.2534 -41.1254 -19.6222 37.1543 35.1510 0.0000 0.0000 10.7890 0.0000 0.0000 11.8090 0.7846 3.3380 19.4065 0.0000 0.0000 37.9821 0.0000 0.0000 34.3811 -12.1217 42.6570 10.2805 0.0000 0.0000 6.3771 0.0000 0.0000 31.7138 -15.5730 38.8881 12.0782 0.0000 0.0000 1.8673 0.0000 0.0000 28.7051 -18.6016 34.4012 9.2635 0.0000 0.0000 7.2051 0.0000 0.0000 0.0000 0.0000 0.0000 0.0000 0.0000 0.0000 0.0000 0.0000 0.0000 0.0000 0.0000 0.0000 0.0000 0.0000 0.0000 0.0000 0.0000 0.0000
0.0000 95.0000 0.0000 0.0000 0.0000 0.0000 0.0000 0.0000 0.0000 0.0000 0.0000 0.0000 0.0000 0.0000 0.0000 0.0000 0.0000 0.0000 0.0000 0.0000 0.0000 0.0000 0.0000 0.0000 -79.0618 1.8310 2.2187 -9.1119 -7.5044 11.0678 17.6079 -51.2267 159.9341 48.8655 -10.4412 0.9772 14.1779 0.0000 0.0000 9.7780 0.0000 0.0000 -23.1911 1.3645 14.4227 4.3043 0.0000 0.0000 2.3186 0.0000 0.0000 -12.3121 1.9705 13.3467 5.2866 0.0000 0.0000 6.1609 0.0000 0.0000 -2.7258 2.3631 13.2215 4.2059 0.0000 0.0000 4.2848 0.0000 0.0000 8.7971 1.7443 10.5919 5.4803 0.0000 0.0000 3.4086 0.0000 0.0000 0.0000 0.0000 0.0000 92.1421 -0.8257 0.7954 -5.1237 12.7609 11.1623 176.6260 48.2773 -112.2197 -41.1254 -19.6222 37.1543 35.1510 0.0000 0.0000 10.7890 0.0000 0.0000 11.8090 0.7846 3.3380 19.4065 0.0000 0.0000 37.9821 0.0000 0.0000 34.3811 -12.1217 42.6570 10.2805 0.0000 0.0000 6.3771 0.0000 0.0000 31.7138 -15.5730 38.8881 12.0782 0.0000 0.0000 1.8673 0.0000 0.0000 28.7051 -18.6016 34.4012 9.2635 0.0000 0.0000 7.2051 0.0000 0.0000 0.0000 0.0000 0.0000 0.0000 0.0000 0.0000 0.0000 0.0000 0.0000 0.0000 0.0000 0.0000 0.0000 0.0000 0.0000 0.0000 0.0000 0.0000
0.0000 95.0000 0.0000 0.0000 0.0000 0.0000 0.0000 0.0000 0.0000 0.0000 0.0000 0.0000 0.0000 0.0000 0.0000 0.0000 0.0000 0.0000 0.0000 0.0000 0.0000 0.0000 0.0000 0.0000 -79.1627 2.2262 2.6927 -8.8282 -7.1074 10.4935 17.7088 -51.1544 159.9210 48.8655 -10.4412 0.9772 14.1779 0.0000 0.0000 9.7780 0.0000 0.0000 -23.1911 1.3645 14.4227 4.3043 0.0000 0.0000 2.3186 0.0000 0.0000 -12.3121 1.9705 13.3467 5.2866 0.0000 0.0000 6.1609 0.0000 0.0000 -2.7258 2.3631 13.2215 4.2059 0.0000 0.0000 4.2848 0.0000 0.0000 8.7971 1.7443 10.5919 5.4803 0.0000 0.0000 3.4086 0.0000 0.0000 0.0000 0.0000 0.0000 92.3300 -0.8921 0.8565 -5.1769 12.4713 10.8539 176.3958 48.0063 -112.1728 -41.1254 -19.6222 37.1543 35.1510 0.0000 0.0000 10.7890 0.0000 0.0000 11.8090 0.7846 3.3380 19.4065 0.0000 0.0000 37.9821 0.0000 0.0000 34.3811 -12.1217 42.6570 10.2805 0.0000 0.0000 6.3771 0.0000 0.0000 31.7138 -15.5730 38.8881 12.0782 0.0000 0.0000 1.8673 0.0000 0.0000 28.7051 -18.6016 34.4012 9.2635 0.0000 0.0000 7.2051 0.0000 0.0000 0.0000 0.0000 0.0000 0.0000 0.0000 0.0000 0.0000 0.0000 0.0000 0.0000 0.0000 0.0000 0.0000 0.0000 0.0000 0.0000 0.0000 0.0000
